#!OML:ASF F:\VICON\USERDATA\INSTALL\rory3\rory3.ASF
:FULLY-SPECIFIED
:DEGREES
124
root 1.464316813483861 17.958070165690767 53.884329134332795 -2.48746924066826 -1.3011900558925311 0.9557368533764028
lfemur 7.327216304739322 -4.315362752899588 -24.103146549743954
ltibia 33.182686546723566
lfoot -1.9036640337644255 -1.1783499646372606
ltoes -5.83789175925276
rfemur -22.933379924729707 2.05850551326006 22.193684119797084
rtibia 28.57180474082383
rfoot -10.327280933287556 -5.106716198829943
rtoes 1.7854486373560456
lowerback 1.0 -1.288439345244143 -1.4538570333777643
upperback 0.24094327290501352 -1.7939966813321278 1.7684577221185485
thorax -4.772950439256883 -0.9152757779523603 3.055869390967842
lowerneck -17.02030618918751 -2.754547265822797 -1.659440919895178
upperneck 21.64238458134008 -3.485427085663467 0.6495420747589848
head 9.764208839965528 -1.6996328104786558 0.12713965868718757
lclavicle -1.0696122058509329e-15 -4.0102670166431575e-16
lhumerus -27.81569761266241 -2.6806764954744855 83.39792201804113
lradius 24.998207607982934
lwrist 5.942108388966954
lhand -26.803002555424754 23.427367072099706
lfingers nan
lthumb -0.1266348280322417 53.5804937722837
rclavicle -1.1600648594114499e-15 -4.766448559712764e-16
rhumerus -29.55011694305155 -19.477111608658728 -79.38802799700326
rradius 28.863866257743815
rwrist 4.224230095942599
rhand -17.549592406556954 1.0
rfingers nan
rthumb 8.740387557434946 -8.441186580202963
125
root 1.4804623045856067 17.955728550138172 53.90106104974227 -2.4873941966729305 -1.4436107208574644 0.40245149660109636
lfemur 6.2806200656323306 -4.031043104231853 -23.05351922696751
ltibia 37.123809809464305
lfoot -2.5113764182525173 -0.6073891947456573
ltoes -4.968810305140222
rfemur -21.843494518806178 2.287221181724019 23.04414205824693
rtibia 26.939873079245807
rfoot -10.851416595504228 -7.054501150854204
rtoes 2.3726419725625862
lowerback 1.0 -1.2282878770726957 -1.0158791738289246
upperback 0.24438219160393132 -1.6782777763370114 1.8230470441777864
thorax -4.785064980298721 -0.8530126456576407 2.97526795777442
lowerneck -17.022358149787692 -2.758944252745812 -1.6295476685144208
upperneck 21.560180953028866 -3.4884721441423707 0.6073566316909332
head 9.721938762248774 -1.7040012776195652 0.10633563146345282
lclavicle -1.0689272499805594e-15 -4.0063503892185724e-16
lhumerus -28.04494829073139 -2.5170594088638127 83.42164556308289
lradius 24.533605920717385
lwrist 6.1023613381974915
lhand -26.845294620372936 23.383223579657596
lfingers nan
lthumb -0.15734079759504804 53.52988313444141
rclavicle -1.1615753494188317e-15 -4.780085697922894e-16
rhumerus -29.635324783511184 -19.73554080323277 -79.21441041262183
rradius 28.95495651006863
rwrist 4.369718595066208
rhand -17.530539471160935 1.0
rfingers nan
rthumb 8.820324501958488 -8.261068470342153
126
root 1.4756892228712912 17.949445519506412 53.465831238802515 -2.4934222557141794 -1.6916075852412826 -0.5260204120782628
lfemur 4.880402523017093 -3.5592443828203173 -21.50681205734759
ltibia 41.20526950004117
lfoot -2.373115136254615 1.0991725418761524
ltoes -5.780226308416337
rfemur -20.391070155430633 2.678063167022856 24.232667115624828
rtibia 26.40178689283562
rfoot -11.61539846203433 -8.07365227815998
rtoes 3.1174290124763253
lowerback 1.0 -1.1025188813904245 -0.33459681512993344
upperback 0.24856775057792538 -1.3813950594229822 1.9468663121303726
thorax -4.833756483537515 -0.7049810444053327 2.8061878633681423
lowerneck -17.03522797803303 -2.7732039677595055 -1.550091779194739
upperneck 21.4603401075099 -3.5093752901131627 0.5624067304217534
head 9.676853912136513 -1.7151140553235857 0.07609130274603398
lclavicle -1.0681367925627886e-15 -4.0041827071704313e-16
lhumerus -28.168914813991407 -2.1925597511629658 83.5219096598277
lradius 24.072471538198375
lwrist 6.293817001489506
lhand -26.898025680183416 23.321231074303128
lfingers nan
lthumb -0.19412142332799254 53.48853391042583
rclavicle -1.1625892856183606e-15 -4.79166772000435e-16
rhumerus -29.677923096012258 -19.974170656813975 -79.03755946639338
rradius 29.017839270631804
rwrist 4.492548535232096
rhand -17.555792632371087 1.0
rfingers nan
rthumb 8.771217526222342 -8.394644371490015
127
root 1.464483081845589 17.943778964529674 52.91611843935056 -2.5014744994132903 -1.9858759262795298 -1.7242503602890662
lfemur 3.0960353997853147 -2.939321967055284 -19.51215094715356
ltibia 45.24790726347108
lfoot -2.847086372803327 1.5926236212967648
ltoes -6.262891702224385
rfemur -18.4395588945288 3.1854074070205227 25.646383785972056
rtibia 26.559618184422604
rfoot -12.83358889244318 -8.672404643211406
rtoes 3.6111668357019435
lowerback 1.0 -0.9115827963058766 0.5479004163252859
upperback 0.2386409335834756 -1.0085840076259458 2.094164272909983
thorax -4.907504140644904 -0.517619870486623 2.5758501406728387
lowerneck -17.06937068522711 -2.7989288583549286 -1.4323169715927435
upperneck 21.349586315830106 -3.5499316821191833 0.5197431475970193
head 9.63326376689439 -1.7335615500606045 0.0384140664972617
lclavicle -1.066550450785962e-15 -3.998981358466683e-16
lhumerus -28.457892388336504 -2.050757562472689 83.62031095244778
lradius 23.702470677353787
lwrist 6.506325418631711
lhand -26.947393368604672 23.28572106316486
lfingers nan
lthumb -0.2451140115432517 53.42380242118321
rclavicle -1.1625688614079677e-15 -4.797366699399325e-16
rhumerus -29.68728884500069 -20.19197571356611 -78.86508622773242
rradius 29.05491945922739
rwrist 4.580821772943448
rhand -17.54146645360424 1.0
rfingers nan
rthumb 8.826620788029437 -8.266601311275156
